<svg width="21" height="20" viewBox="0 0 21 20" fill="none" xmlns="http://www.w3.org/2000/svg">
<g clip-path="url(#clip0_23_19)">
<path d="M16.915 8.36078L12.8017 10.311C12.2005 10.5951 11.5438 10.7426 10.8789 10.7426C10.2966 10.7426 9.72047 10.6295 9.18257 10.4106L8.95503 10.311L4.84273 8.36078L4.12886 8.02191V13.1254C4.12895 13.9086 4.38728 14.6604 4.99605 15.102V15.103C5.9795 15.8241 7.84483 16.7504 10.8789 16.7504C13.9125 16.7504 15.77 15.8174 16.7558 15.1059L16.7568 15.1069C17.3718 14.6675 17.6288 13.915 17.6289 13.1254V8.02191L16.915 8.36078ZM10.8867 1.76508C11.5516 1.76514 12.2084 1.91252 12.8095 2.19672H12.8105L19.9599 5.57172C20.0883 5.63251 20.1965 5.72906 20.2724 5.84906C20.3106 5.90941 20.3398 5.97448 20.3593 6.04242L19.8418 5.79828L12.6923 2.42328C12.1254 2.1548 11.5061 2.01509 10.8789 2.01508C10.3297 2.01508 9.78641 2.12183 9.27925 2.32855L9.06441 2.42328L1.91499 5.79828L1.4062 6.03754C1.42574 5.97317 1.45381 5.91132 1.49019 5.85394C1.56627 5.73408 1.67523 5.63807 1.80367 5.57758L1.83784 5.56195L1.84859 5.55414L8.96187 2.19672H8.96284C9.56417 1.91243 10.2215 1.76508 10.8867 1.76508ZM3.87886 7.91156L3.59175 7.77679L1.80464 6.93304L1.80367 6.93207C1.67533 6.87159 1.56624 6.77644 1.49019 6.65668C1.45143 6.59561 1.42193 6.52926 1.4023 6.46039L1.91499 6.70258L9.06538 10.0776V10.0766C9.63229 10.3451 10.2516 10.4848 10.8789 10.4848C11.5061 10.4848 12.1254 10.3451 12.6923 10.0766V10.0776L19.8418 6.70258L20.3886 6.44379V13.1254C20.3885 13.1583 20.3757 13.19 20.3525 13.2133C20.3291 13.2368 20.2968 13.2504 20.2636 13.2504C20.2306 13.2504 20.1991 13.2366 20.1757 13.2133C20.1524 13.19 20.1387 13.1584 20.1386 13.1254V6.84808L19.4248 7.18597L18.1748 7.77679L17.8886 7.91254V13.1284C17.8886 13.9732 17.6178 14.8146 16.9179 15.3217C15.8847 16.0588 13.9729 17.0034 10.8837 17.0034C7.79289 17.0034 5.87706 16.0644 4.85152 15.3237H4.85249C4.15041 14.8143 3.87886 13.9642 3.87886 13.1284V7.91156Z" stroke="#F76301"/>
</g>
<defs>
<clipPath id="clip0_23_19">
<rect width="20" height="20" fill="white" transform="translate(0.875)"/>
</clipPath>
</defs>
</svg>
